<svg xmlns="http://www.w3.org/2000/svg" width="40" height="23.342" viewBox="609 545 40 23.342"><g data-name="Group 6593"><path d="M649 557.717c-.174.902-.355 1.803-.52 2.706-.233 1.265-.452 2.532-.68 3.797-.1.548-.363.773-.91.782-.386.005-.773 0-1.147 0-.827 2.274-2.113 3.346-3.976 3.34-1.85-.006-3.164-1.11-3.945-3.339h-.352c-3.007 0-6.014.005-9.02-.008-.293 0-.403.094-.486.381-.517 1.787-2.076 2.976-3.852 2.966-1.762-.01-3.33-1.235-3.818-3.016-.077-.279-.197-.334-.444-.328-.676.015-1.353.01-2.03.003-.541-.006-.902-.344-.9-.828.001-.487.363-.825.903-.829.787-.005 1.575-.001 2.368-.001.064-.21.114-.397.177-.58.582-1.664 2.157-2.8 3.82-2.756 1.757.045 3.264 1.203 3.763 2.935.094.329.226.412.536.408 1.252-.018 2.505-.008 3.814-.008l3.658-16.662h-.54c-5.776 0-11.553 0-17.33-.002-.186 0-.378-.002-.559-.043-.36-.082-.607-.418-.61-.79a.811.811 0 0 1 .6-.799c.145-.036.298-.044.447-.044 6.253-.002 12.506-.002 18.758-.001.846 0 1.164.415.977 1.27-.268 1.226-.54 2.453-.82 3.73h.482c1.704.016 3.412-.046 5.11.064 3.23.21 6.015 3 6.45 6.34.016.126.05.25.076.374v.938Zm-2.667 5.604c.265-1.47.532-2.923.787-4.379.11-.625.298-1.26.267-1.881-.13-2.618-2.103-4.856-4.598-5.282a8.115 8.115 0 0 0-1.308-.094c-1.639-.01-3.278-.004-4.952-.004l-2.55 11.661h3.859c.528-2.193 2.21-3.292 3.743-3.316 2.201-.033 3.531 1.183 4.158 3.295h.594Zm-4.538-1.636c-1.337-.006-2.417 1.105-2.418 2.487-.002 1.375 1.093 2.513 2.41 2.508 1.309-.006 2.39-1.124 2.4-2.48.01-1.386-1.058-2.509-2.392-2.515Zm-15.271 2.482c0-1.387-1.044-2.478-2.377-2.483-1.331-.005-2.397 1.089-2.399 2.462-.002 1.41 1.047 2.526 2.38 2.534 1.333.008 2.396-1.108 2.396-2.513Z" fill="#ceb99a" fill-rule="evenodd" data-name="Path 12011"/><path d="M609 558.892c.239-.548.654-.753 1.251-.75 3.816.015 7.633.006 11.45.009.735 0 1.167.398 1.143 1.034a.941.941 0 0 1-.82.917c-.168.023-.34.019-.51.019-3.723.001-7.446-.01-11.17.01-.598.004-1.047-.155-1.344-.682v-.557Z" fill="#ceb99a" fill-rule="evenodd" data-name="Path 12012"/><path d="M616.969 553.221c1.608 0 3.217-.006 4.825.004.723.004 1.176.558 1.03 1.22-.096.442-.467.737-.99.743-1.005.013-2.01.006-3.016.006-2.242 0-4.485.004-6.728-.003-.767-.003-1.237-.55-1.071-1.212.122-.488.49-.755 1.077-.756 1.624-.005 3.248-.002 4.873-.002Z" fill="#ceb99a" fill-rule="evenodd" data-name="Path 12013"/><path d="M617.886 550.94c-1.252 0-2.504.004-3.755 0-.736-.004-1.151-.36-1.157-.972-.005-.622.433-.998 1.181-.999 2.534-.002 5.069-.005 7.603.002.865.003 1.37.795.96 1.485-.22.372-.568.49-.984.487-1.283-.007-2.565-.003-3.848-.002Z" fill="#ceb99a" fill-rule="evenodd" data-name="Path 12014"/><path d="M645.707 564.256h-.733c-.773-2.51-2.415-3.954-5.131-3.915-1.893.028-3.97 1.335-4.62 3.94H630.458l3.148-13.854c2.067 0 4.09-.007 6.113.005.539.004 1.084.025 1.614.112 3.08.507 5.516 3.164 5.676 6.274.038.738-.195 1.493-.33 2.235-.314 1.73-.644 3.456-.972 5.203Z" fill="#ceb99a" fill-rule="evenodd" data-name="Path 12015"/></g></svg>