<svg xmlns="http://www.w3.org/2000/svg" width="32.875" height="40" viewBox="224.314 536 32.875 40"><g data-name="Group 6592"><path d="M241.474 536c.314.264.417.6.414 1.007-.013 1.617-.005 3.234-.006 4.851 0 .109.005.218-.008.326-.056.453-.387.762-.81.76-.423 0-.756-.311-.808-.762-.012-.107-.008-.217-.008-.325 0-1.617.008-3.234-.006-4.851-.003-.408.101-.743.415-1.006h.817Z" fill="#ceb99a" fill-rule="evenodd" data-name="Path 12027"/><path d="M240.79 547.86c2.996 0 5.99.006 8.985-.004.507-.002.878.15 1.204.554 1.952 2.427 3.928 4.837 5.895 7.254.422.519.42.81-.006 1.326l-15.25 18.421a11.6 11.6 0 0 1-.123.148c-.501.585-.995.59-1.483.002-1.76-2.12-3.516-4.243-5.274-6.366l-10.05-12.142c-.495-.598-.498-.85-.01-1.447 1.934-2.376 3.878-4.745 5.797-7.134.358-.446.76-.623 1.332-.62 2.994.018 5.99.009 8.984.009Zm-5.617 9.237 5.534 15.665h.09l5.533-15.665c-.218 0-.382.002-.547 0-.676-.01-1.354.002-2.028-.043-.39-.026-.657-.381-.65-.741a.75.75 0 0 1 .636-.72c.216-.036.44-.036.66-.039.394-.006.787-.002 1.29-.002l-4.94-5.725-4.937 5.725h.978c1.213 0 1.597.183 1.607.763.01.585-.39.782-1.587.782h-1.639Zm7.846 14.07.064.035 11.65-14.07c-.166-.016-.264-.034-.361-.034-2.017-.002-4.034.005-6.051-.008-.278-.002-.377.104-.46.343-1.086 3.1-2.183 6.196-3.277 9.293l-1.565 4.44Zm-16.26-14.05 11.666 14.09a.71.71 0 0 0-.048-.355c-1.576-4.458-3.156-8.915-4.72-13.377-.104-.296-.235-.388-.548-.386-1.965.015-3.93.007-5.895.009-.124 0-.248.01-.456.02Zm7.618-2.28 4.667-5.414h-6.58l1.913 5.414Zm8.075-5.42 4.676 5.42 1.911-5.42h-6.587Zm-15.71 6.113h6.22l-1.88-5.323-4.34 5.323Zm23.679-5.324-1.874 5.31h6.2l-4.326-5.31Z" fill="#ceb99a" fill-rule="evenodd" data-name="Path 12028"/><path d="M228.248 540.528c.17-.2.317-.462.54-.611.281-.188.605-.119.867.108.09.078.17.179.23.283a705.961 705.961 0 0 1 2.345 4.062c.079.138.144.302.154.458a.756.756 0 0 1-.437.768.76.76 0 0 1-.906-.126 1.353 1.353 0 0 1-.248-.322 636.168 636.168 0 0 1-2.283-3.956c-.098-.172-.149-.372-.262-.664Z" fill="#ceb99a" fill-rule="evenodd" data-name="Path 12029"/><path d="M253.802 540.751c-.028.072-.072.245-.157.395a744.475 744.475 0 0 1-2.321 4.028c-.207.356-.498.58-.938.49-.359-.073-.591-.306-.621-.664-.018-.202.035-.44.135-.618a320.212 320.212 0 0 1 2.341-4.063c.247-.422.599-.574.986-.466.35.098.585.421.575.898Z" fill="#ceb99a" fill-rule="evenodd" data-name="Path 12030"/><path d="M227.184 555.896c.217-.01.347-.021.476-.021 2.054-.001 4.109.007 6.163-.009.328-.002.464.096.573.41 1.636 4.751 3.288 9.497 4.935 14.243.04.113.07.229.05.378-4.048-4.98-8.097-9.958-12.197-15Z" fill="#ceb99a" fill-rule="evenodd" data-name="Path 12031"/><path d="m227.167 555.303 4.537-5.667 1.966 5.667h-6.503Z" fill="#ceb99a" fill-rule="evenodd" data-name="Path 12032"/><path d="M241.046 556.766a.812.812 0 0 1-.793-.81.812.812 0 1 1 1.623.037.811.811 0 0 1-.83.773Z" fill="#ceb99a" fill-rule="evenodd" data-name="Path 12033"/></g></svg>