<svg xmlns="http://www.w3.org/2000/svg" width="40" height="40" viewBox="987.927 536 40 40"><g data-name="Group 6590"><path d="M987.927 562.295c1.564-2.437 3.133-4.871 4.688-7.314.247-.388.547-.56 1.001-.558 6.196.01 12.392.006 18.589.006h.156c.53.012.881.342.875.82-.006.478-.356.797-.894.8-.833.005-1.667.002-2.5.002h-.44c.084.141.133.23.188.315 1.089 1.697 2.174 3.396 3.275 5.085.084.13.274.264.415.265 4.06.014 8.122.011 12.184.01.048 0 .096-.01.19-.021-.075-.128-.13-.229-.192-.325-1.074-1.674-2.155-3.345-3.219-5.026-.148-.234-.304-.316-.566-.309-.689.017-1.38.01-2.069.005-.54-.004-.89-.319-.897-.797-.009-.493.348-.82.91-.823.885-.004 1.77.011 2.656-.006.423-.009.708.165.938.525 1.566 2.452 3.14 4.898 4.712 7.346v.487c-.228.441-.58.588-1.06.576-1.079-.028-2.158-.01-3.237-.008-.124 0-.249.012-.391.019v.52c0 3.67-.007 7.34.008 11.01.002.498-.134.862-.555 1.1h-29.531c-.422-.237-.557-.601-.555-1.1.015-3.683.008-7.367.008-11.05v-.5c-1.24 0-2.435-.017-3.628.009-.48.01-.833-.133-1.06-.576v-.487Zm19.199-4.31c-.124.177-.208.288-.283.404-.925 1.438-1.86 2.869-2.764 4.32-.284.456-.619.654-1.152.65-2.772-.021-5.545-.01-8.318-.01h-.401v11.007h12.918v-16.371Zm1.592 16.364h12.94v-11h-.437c-2.773 0-5.546-.009-8.318.009-.497.003-.825-.168-1.097-.603-.92-1.472-1.869-2.926-2.808-4.386-.072-.113-.151-.222-.28-.41v16.39Zm-18.527-12.636c.138.006.224.014.31.014 4.01 0 8.02-.002 12.029.006.226 0 .348-.083.467-.27 1.084-1.7 2.176-3.395 3.265-5.092.055-.086.105-.175.192-.32h-.32c-4.01 0-8.019.002-12.028-.006-.225 0-.348.082-.468.27-1.083 1.7-2.175 3.395-3.264 5.092-.055.086-.105.175-.183.306Z" fill="#ceb99a" fill-rule="evenodd" data-name="Path 12016"/><path d="M1007.57 536c.271.072.547.133.814.22 2.577.832 3.823 3.893 2.628 6.438a7.687 7.687 0 0 1-1.927 2.529c-1.708 1.491-3.458 2.935-5.196 4.392-.313.262-.685.311-1.005.043-2.05-1.712-4.25-3.255-6.046-5.256-.993-1.105-1.64-2.366-1.593-3.91.07-2.24 1.54-3.974 3.745-4.393.05-.01.098-.042.146-.063h1.135c1.089.219 2.027.698 2.736 1.575.107.133.216.265.326.4 1.526-1.687 1.9-1.644 3.102-1.975h1.135Zm-4.277 11.97c.64-.522 1.207-.959 1.746-1.427 1.12-.973 2.255-1.934 3.33-2.955.72-.684 1.263-1.509 1.437-2.528.228-1.331-.507-2.722-1.714-3.22-1.26-.52-2.544-.127-3.363 1.073-.255.374-.427.807-.62 1.222-.152.328-.39.513-.751.516-.36.002-.615-.173-.754-.508-.052-.124-.093-.253-.147-.377-.36-.825-.849-1.548-1.708-1.916-.993-.427-1.942-.284-2.78.379-.904.716-1.213 1.7-1.065 2.817.137 1.039.71 1.879 1.452 2.56 1.61 1.478 3.272 2.898 4.937 4.364Z" fill="#ceb99a" fill-rule="evenodd" data-name="Path 12017"/><path d="M1016.898 543.28c.484-.543 1.023-.957 1.719-1.115 1.78-.406 3.512.767 3.877 2.612.242 1.223-.077 2.308-.827 3.264a12.227 12.227 0 0 1-1.347 1.453c-.915.84-1.864 1.642-2.806 2.452-.416.357-.782.383-1.165.05-1.151-1-2.31-1.994-3.422-3.038-.837-.785-1.482-1.706-1.672-2.89-.382-2.376 1.657-4.416 3.92-3.904.697.158 1.238.568 1.723 1.117Zm-.016 7.137c1.112-1.028 2.147-1.955 3.142-2.923.301-.294.535-.68.724-1.062.32-.646.278-1.312-.083-1.94-.555-.964-1.777-1.067-2.472-.199a3.191 3.191 0 0 0-.47.841c-.155.403-.37.692-.836.688-.446-.005-.668-.278-.806-.671a3.201 3.201 0 0 0-.3-.615c-.354-.573-.849-.92-1.547-.813-.705.108-1.108.577-1.303 1.234-.26.882.026 1.662.622 2.274 1.052 1.078 2.174 2.088 3.33 3.186Z" fill="#ceb99a" fill-rule="evenodd" data-name="Path 12018"/><path d="M1016.769 555.982a.817.817 0 0 1-.81.826.817.817 0 0 1-.806-.79.816.816 0 0 1 .81-.826.817.817 0 0 1 .806.79Z" fill="#ceb99a" fill-rule="evenodd" data-name="Path 12019"/><path d="M1008.34 574.349v-16.39c.134.188.216.297.291.41.975 1.46 1.96 2.914 2.915 4.386.282.436.622.606 1.138.603 2.878-.018 5.756-.009 8.634-.009h.454v11h-13.431Z" fill="#ceb99a" fill-rule="evenodd" data-name="Path 12020"/></g></svg>