<svg xmlns="http://www.w3.org/2000/svg" width="40" height="39.962" viewBox="1366.927 537 40 39.962"><g data-name="Group 6589"><path d="M1366.927 565.637c.125-.607.21-1.227.383-1.82 1.006-3.447 3.213-5.791 6.57-7.047.26-.097.326-.21.326-.47-.009-3.241.001-6.482-.013-9.723-.002-.519.187-.839.645-1.087 2.972-1.613 5.932-3.245 8.895-4.871 2.097-1.151 4.196-2.297 6.285-3.46.386-.215.717-.209 1.097 0 5.069 2.79 10.14 5.576 15.215 8.354.41.224.601.519.596.997-.016 1.718-.003 3.436-.009 5.154-.001.503-.329.847-.776.849-.447.002-.767-.342-.783-.843-.002-.091 0-.182 0-.273v-3.766l-.76.419c-1.14.625-2.277 1.257-3.424 1.868-.23.122-.308.26-.306.515.011 1.432-.005 2.864.01 4.295.006.483-.164.806-.6 1.036-1.013.533-2.007 1.102-3.011 1.649-.734.399-1.289.06-1.29-.787-.003-1.132-.001-2.264-.001-3.397v-.422c-.133.06-.215.09-.29.132-1.357.744-2.716 1.483-4.064 2.242-.126.071-.258.267-.259.405-.013 4.946-.01 9.892-.009 14.838 0 .038.012.076.026.166.113-.05.214-.085.307-.136 4.457-2.445 8.913-4.892 13.372-7.333.22-.12.308-.249.306-.51a326.613 326.613 0 0 1-.005-4.568c.003-.5.336-.842.785-.838.448.004.76.346.774.852.002.052 0 .104 0 .156 0 1.666-.008 3.332.006 4.998.004.455-.163.753-.566.974a8121.096 8121.096 0 0 0-15.282 8.392c-.354.195-.674.198-1.029-.001-1.052-.592-2.114-1.166-3.199-1.762-.063.105-.12.186-.164.273-1.743 3.366-4.482 5.317-8.25 5.808-.088.011-.173.044-.26.067h-1.719c-.125-.026-.25-.06-.376-.076a10.474 10.474 0 0 1-3.278-.96c-.338-.162-.522-.439-.47-.818.045-.337.24-.604.588-.64.23-.022.491.037.707.131 1.499.654 3.05.921 4.683.74 4.992-.555 8.543-5.217 7.738-10.165-.636-3.91-3.814-6.992-7.839-7.392a8.785 8.785 0 0 0-8.973 5.25c-1.049 2.422-1.004 4.854.08 7.263.25.556.134.994-.314 1.199-.44.202-.876.009-1.103-.552a17.814 17.814 0 0 1-.655-1.873c-.15-.533-.215-1.09-.317-1.635v-1.797Zm22.84 4.994c.013-.131.022-.182.022-.233 0-4.931-.002-9.862.008-14.794.001-.269-.142-.357-.33-.46-4.431-2.431-8.863-4.866-13.294-7.298-.12-.065-.244-.119-.388-.187v8.615c.152-.012.28-.017.406-.032 4.216-.495 8.415 1.747 10.355 5.537 1.173 2.29 1.451 4.692.89 7.2-.029.124-.005.35.074.396.725.426 1.467.822 2.257 1.256Zm-13.129-24.338c.081.057.129.097.183.127 4.5 2.472 9 4.946 13.508 7.405.133.072.38.05.521-.025 1.307-.698 2.603-1.418 3.901-2.132.109-.06.214-.126.36-.213-.589-.324-1.134-.625-1.68-.924-3.988-2.19-7.976-4.381-11.967-6.565-.122-.067-.321-.131-.42-.078-1.466.785-2.921 1.59-4.406 2.405Zm9.541-5.236c.166.096.284.168.405.235l2.802 1.54c3.474 1.906 6.948 3.814 10.426 5.715.13.07.345.14.452.082 1.409-.752 2.806-1.527 4.241-2.316-.146-.084-.255-.15-.367-.212l-12.3-6.756c-.42-.231-.85-.621-1.274-.62-.425 0-.853.391-1.274.621-1.024.56-2.045 1.125-3.11 1.711Zm-3.376 1.855c.828.454 1.588.871 2.347 1.289 3.76 2.065 7.52 4.131 11.28 6.194.12.065.296.166.383.124.55-.271 1.085-.578 1.68-.904-1.277-.702-2.472-1.36-3.668-2.016-3.328-1.826-6.654-3.655-9.987-5.472-.135-.074-.357-.117-.483-.057-.503.24-.983.528-1.552.842Zm16.509 8.04c-.567.31-1.038.582-1.522.825-.208.105-.261.242-.256.458.013.532.004 1.064.004 1.596v1.645c.298-.162.522-.33.773-.412.842-.276 1.122-.819 1.019-1.698-.089-.764-.018-1.546-.018-2.415Z" fill="#ceb99a" fill-rule="evenodd" data-name="Path 12043"/><path d="M1406.047 555.711a.866.866 0 0 1-.826-.86.851.851 0 0 1 .89-.833c.458.023.823.42.805.876a.863.863 0 0 1-.869.817Z" fill="#ceb99a" fill-rule="evenodd" data-name="Path 12044"/><path d="M1375.896 546.305c1.617-.888 3.201-1.764 4.797-2.62.109-.057.326.013.458.086 4.347 2.378 8.69 4.764 13.033 7.149l1.83 1.006c-.16.095-.274.167-.392.232-1.414.778-2.825 1.562-4.249 2.322-.154.083-.423.106-.567.027-4.91-2.678-9.81-5.372-14.711-8.064-.059-.032-.11-.077-.199-.138Z" fill="#ceb99a" fill-rule="evenodd" data-name="Path 12046"/><path d="M1384.332 541.419c1.16-.64 2.273-1.255 3.388-1.864.459-.25.924-.677 1.387-.677.462 0 .93.424 1.387.676 4.467 2.45 8.931 4.904 13.396 7.358.122.066.24.138.4.23-1.564.86-3.085 1.703-4.62 2.522-.116.063-.349-.012-.491-.09-3.788-2.069-7.571-4.147-11.355-6.223l-3.05-1.677c-.133-.073-.262-.151-.442-.255Z" fill="#ceb99a" fill-rule="evenodd" data-name="Path 12047"/><path d="M1399.34 550.793c0 .945-.077 1.797.02 2.63.112.957-.193 1.548-1.11 1.849-.273.09-.516.272-.841.449v-1.792c0-.58.01-1.159-.005-1.738-.006-.236.052-.385.279-.499.528-.265 1.04-.561 1.657-.9Z" fill="#ceb99a" fill-rule="evenodd" data-name="Path 12049"/><path d="M1375.433 564.594c.185.15.39.283.551.456.33.355.321.87.005 1.188a.814.814 0 0 1-1.184.01 74.93 74.93 0 0 1-2.075-2.074c-.324-.336-.32-.813.006-1.151.679-.703 1.37-1.396 2.075-2.073a.817.817 0 0 1 1.183.022.842.842 0 0 1 .014 1.156c-.169.185-.39.322-.587.481l.08.12c.118.009.236.025.354.025 1.531.002 3.062-.01 4.593.004 2.023.018 3.622 1.483 3.867 3.522.225 1.876-1.043 3.708-2.942 4.159-.556.132-1.15.118-1.729.136-.694.021-1.389.01-2.083.003-.591-.007-.953-.34-.95-.857.001-.519.358-.838.958-.841.963-.005 1.928.013 2.891-.008 1.165-.025 2.054-.877 2.173-2.043.11-1.065-.662-2.085-1.76-2.33-.069-.015-.139-.033-.209-.033-1.713-.002-3.426-.002-5.14-.002l-.091.13Z" fill="#ceb99a" fill-rule="evenodd" data-name="Path 12050"/><path d="M1369.996 573.051a.854.854 0 0 1 .82-.851c.478-.015.87.36.874.837a.856.856 0 0 1-.816.857.869.869 0 0 1-.878-.843Z" fill="#ceb99a" fill-rule="evenodd" data-name="Path 12051"/></g></svg>